<svg width="17" height="10" viewBox="0 0 17 10" fill="none" xmlns="http://www.w3.org/2000/svg">
<path d="M6.78824 4.52001C7.13065 4.35299 7.38951 4.16698 7.5669 3.96596C7.88249 3.60393 8.03822 3.12389 8.03822 2.52884C8.03822 1.94979 7.88249 1.45475 7.57103 1.03972C7.05124 0.363664 6.17151 0.0176353 4.92772 -0.000366211H0V9.75344H4.5946C5.11233 9.75344 5.5919 9.71043 6.03537 9.62242C6.47884 9.53342 6.8625 9.3704 7.18737 9.13238C7.47614 8.92537 7.71748 8.66835 7.90931 8.36532C8.21252 7.90728 8.36412 7.38824 8.36412 6.81019C8.36412 6.25015 8.23108 5.77311 7.96706 5.38108C7.69994 4.98904 7.30804 4.70202 6.78824 4.52001ZM2.03276 1.69377H4.25219C4.74001 1.69377 5.14223 1.74478 5.45782 1.84579C5.82292 1.9928 6.00546 2.29182 6.00546 2.74786C6.00546 3.15689 5.86623 3.44292 5.59087 3.60393C5.31344 3.76494 4.9535 3.84595 4.51209 3.84595H2.03276V1.69377ZM5.54239 7.88928C5.29693 8.00429 4.95144 8.0613 4.509 8.0613H2.03276V5.46008H4.54303C4.98032 5.46308 5.32066 5.51909 5.56405 5.6241C5.99721 5.81411 6.21276 6.16214 6.21276 6.67118C6.21276 7.27123 5.98999 7.67526 5.54239 7.88928Z" fill="#272727"/>
<path d="M14.9142 0.454712H10.5444V1.66881H14.9142V0.454712Z" fill="#272727"/>
<path d="M16.4322 5.2461C16.3415 4.68105 16.1414 4.18401 15.8299 3.75498C15.4885 3.26894 15.0554 2.91291 14.5284 2.68789C14.0034 2.46187 13.4125 2.34886 12.7545 2.34986C11.6499 2.34986 10.7527 2.68489 10.0586 3.34994C9.36655 4.017 9.02002 4.97608 9.02002 6.22618C9.02002 7.55929 9.40264 8.52237 10.172 9.11341C10.9383 9.70546 11.8232 10.0005 12.8277 10.0005C14.0436 10.0005 14.9894 9.64946 15.6649 8.9494C16.097 8.50736 16.3415 8.07233 16.3951 7.64529H14.3819C14.2654 7.85631 14.1303 8.02133 13.9756 8.14134C13.6951 8.36135 13.33 8.47136 12.8824 8.47136C12.4564 8.47136 12.0955 8.38035 11.7943 8.19934C11.2972 7.90932 11.0373 7.40127 11.0043 6.67821H16.4982C16.5065 6.05516 16.4858 5.57613 16.4322 5.2461ZM11.0538 5.43311C11.126 4.96407 11.3013 4.59204 11.5798 4.31702C11.8583 4.043 12.2522 3.90499 12.7565 3.90399C13.2217 3.90399 13.6105 4.033 13.9271 4.29202C14.2396 4.55304 14.416 4.93207 14.4521 5.43311H11.0538Z" fill="#272727"/>
</svg>
