<svg width="120" height="51" viewBox="0 0 120 51" fill="none" xmlns="http://www.w3.org/2000/svg">
<g clip-path="url(#clip0)">
<path d="M31.0065 8.8958C29.622 8.56748 28.4238 8.28754 28.4238 7.31985C28.4238 6.02383 30.019 5.88213 30.7027 5.88213C31.6522 5.88213 32.1943 6.01346 32.9022 6.33487C33.244 6.08258 34.8116 4.92481 34.8116 4.92481C33.7792 4.26471 32.2254 3.74976 30.72 3.74976C27.1256 3.74976 25.8446 5.6644 25.8446 7.45463C25.8446 10.0328 28.0854 10.572 30.0605 11.0455C31.4485 11.3772 32.6466 11.6675 32.6466 12.6491C32.6466 13.1536 32.3462 14.0004 30.3332 14.0004C28.997 14.0004 27.533 13.5303 26.4937 12.7735L25.6201 14.7745C26.6801 15.6005 28.5171 16.1327 30.316 16.1327C33.2992 16.1327 35.2259 14.6847 35.2259 12.4452C35.2259 9.89459 32.985 9.36237 31.0065 8.8958Z" fill="#272727"/>
<path d="M46.1471 9.75302L46.0228 9.71154L46.1367 9.64933C47.1208 9.11365 47.6629 8.18743 47.6629 7.04348C47.6629 5.11155 46.0262 3.96069 43.2881 3.96069H37.6255V15.9255H43.6231C46.6063 15.9255 48.2499 14.7746 48.2499 12.6872C48.2499 11.2633 47.4833 10.1954 46.1471 9.75302ZM40.2082 5.95137H42.9567C44.69 5.95137 45.0525 6.74972 45.0525 7.41328C45.0525 8.37406 44.3274 8.87518 42.9567 8.87518H40.2082V5.95137ZM40.2082 8.87864H42.9567H40.2082ZM43.4228 13.9314H40.2048V10.8693H43.4228C44.8903 10.8693 45.6361 11.3774 45.6361 12.4003C45.6361 13.4268 44.911 13.9314 43.4228 13.9314Z" fill="#272727"/>
<path d="M56.9893 5.95137L59.6894 3.96069H50.6499V15.9255H59.6894V13.9314H53.2292V10.8693H58.7399V8.87864H53.2292V5.95137H56.9893Z" fill="#272727"/>
<path d="M72.2851 15.9255L69.6609 12.0375C71.2112 11.3601 72.1021 10.0295 72.1021 8.24273C72.1021 5.60231 70.1512 3.96069 67.0126 3.96069H62.0923V15.9255H64.6716V12.5351H67.0126C67.0851 12.5351 67.1576 12.5317 67.2301 12.5317L69.5228 15.9255H72.2851ZM64.6681 5.95137H66.9539C68.6078 5.95137 69.5159 6.767 69.5159 8.24618C69.5159 9.72537 68.6043 10.541 66.9539 10.541H64.6681V5.95137Z" fill="#272727"/>
<path d="M19.8642 9.94303C19.8642 9.33477 19.8089 8.74033 19.7054 8.16317L17.5681 9.73912C17.5715 9.80824 17.5715 9.87391 17.5715 9.94303C17.5715 14.1594 14.1463 17.5878 9.93382 17.5878C5.72136 17.5878 2.29614 14.1594 2.29614 9.94303C2.29614 5.72666 5.72136 2.29827 9.93382 2.29827C11.529 2.29827 13.0138 2.79248 14.2395 3.6323L16.1696 2.20841C14.4639 0.825994 12.2956 0 9.93382 0C4.44726 0 0 4.45138 0 9.94303C0 15.4347 4.44726 19.8861 9.93382 19.8861C15.4204 19.8861 19.8642 15.4312 19.8642 9.94303Z" fill="#272727"/>
<path d="M17.7928 3.86377C18.2624 4.47203 18.663 5.13214 18.9841 5.84062L9.93418 12.5142L6.15332 10.1399V7.28525L9.93418 9.65955L17.7928 3.86377Z" fill="#272727"/>
<path d="M31.6695 34.4877C30.7579 34.4877 29.9361 34.3495 29.211 34.0765C28.4859 33.8035 27.8679 33.4164 27.3569 32.9152C26.8458 32.4141 26.4557 31.8093 26.1794 31.0939C25.9067 30.3785 25.7686 29.5698 25.7686 28.6678C25.7686 27.8383 25.9032 27.0745 26.1725 26.3695C26.4419 25.6645 26.8286 25.0562 27.3327 24.5378C27.8368 24.0194 28.4514 23.615 29.1765 23.3213C29.9016 23.0241 30.7199 22.8789 31.6349 22.8789C32.0976 22.8789 32.5258 22.9135 32.9228 22.9826C33.3199 23.0517 33.679 23.145 33.9932 23.2556C34.3109 23.3697 34.5871 23.4906 34.8219 23.6254C35.0567 23.7602 35.2397 23.8915 35.3709 24.0194V26.2935C35.2086 26.0239 35.0049 25.7647 34.7597 25.5124C34.5111 25.2601 34.228 25.0355 33.9069 24.835C33.5858 24.6346 33.2301 24.4756 32.8434 24.3512C32.4567 24.2268 32.0527 24.1646 31.6349 24.1646C30.9582 24.1646 30.3505 24.2751 29.8153 24.4963C29.2766 24.7175 28.8209 25.0251 28.4445 25.4226C28.0681 25.82 27.7816 26.2935 27.5813 26.843C27.381 27.3925 27.2844 28.0042 27.2844 28.6816C27.2844 29.3175 27.3776 29.9085 27.5675 30.4545C27.7539 31.0041 28.0336 31.4775 28.4065 31.8819C28.776 32.2862 29.2352 32.6042 29.7773 32.8427C30.3194 33.0777 30.9513 33.1986 31.6695 33.1986C32.3773 33.1986 32.9815 33.1157 33.4753 32.9498C33.969 32.7839 34.335 32.5973 34.5698 32.3934V29.6527H32.0562V28.3636H35.9095V32.898C35.7818 33.0915 35.5746 33.2816 35.288 33.4717C35.0049 33.6583 34.6665 33.8311 34.2798 33.9866C33.8931 34.1421 33.4753 34.2666 33.023 34.3564C32.5741 34.4394 32.1218 34.4877 31.6695 34.4877Z" fill="#272727"/>
<path d="M38.5375 26.874C38.8068 26.6701 39.1728 26.4904 39.6424 26.3349C40.1085 26.1793 40.654 26.0999 41.279 26.0999C41.7935 26.0999 42.2562 26.1482 42.6636 26.245C43.071 26.3418 43.4198 26.5042 43.7029 26.7289C43.986 26.9535 44.2036 27.2542 44.3555 27.624C44.5074 27.9938 44.5799 28.4534 44.5799 29.0029V34.3252H43.3058V32.9532C43.0918 33.4059 42.743 33.7688 42.2665 34.0418C41.7866 34.3149 41.2272 34.4531 40.5815 34.4531C39.777 34.4531 39.1313 34.2423 38.6479 33.8241C38.1645 33.4059 37.9229 32.7804 37.9229 31.9544C37.9229 31.512 38.0023 31.1457 38.1576 30.8485C38.313 30.5512 38.5375 30.3162 38.8275 30.14C39.1175 29.9637 39.4732 29.8393 39.891 29.7702C40.3088 29.701 40.7887 29.6665 41.3239 29.6665H43.2402V29.0202C43.2402 28.6746 43.1919 28.3912 43.0952 28.1666C42.9985 27.9419 42.8639 27.7622 42.6912 27.6274C42.5186 27.4926 42.3114 27.3993 42.0697 27.344C41.828 27.2922 41.5621 27.2645 41.2721 27.2645C40.6368 27.2645 40.0912 27.4028 39.6355 27.6827C39.1797 27.9627 38.8102 28.329 38.5305 28.7783V26.874H38.5375ZM40.9199 33.2124C41.3274 33.2124 41.6761 33.1536 41.9592 33.0361C42.2424 32.9186 42.4771 32.7769 42.6602 32.6076C42.8432 32.4417 42.9813 32.2654 43.071 32.0823C43.1608 31.8991 43.2195 31.7367 43.2402 31.5984V30.7275H41.3722C40.6402 30.7275 40.112 30.8035 39.7839 30.9521C39.4559 31.1042 39.2936 31.4083 39.2936 31.8714C39.2936 32.2689 39.4283 32.5938 39.6976 32.8391C39.9635 33.088 40.3744 33.2124 40.9199 33.2124Z" fill="#272727"/>
<path d="M52.2036 29.3417C52.2036 28.6229 52.0655 28.101 51.7927 27.7865C51.5199 27.4685 51.0642 27.3096 50.4323 27.3096C49.6899 27.3199 49.1617 27.5584 48.844 28.0284C48.5263 28.495 48.3675 29.1482 48.3675 29.988V34.3288H47.0312V26.2589H48.3053V27.9697C48.4331 27.4305 48.7162 26.9881 49.1513 26.6391C49.5863 26.29 50.1354 26.1138 50.8017 26.1138C52.2519 26.1138 53.129 26.7324 53.4294 27.9697C53.5813 27.4443 53.8713 27.0054 54.3064 26.6564C54.7414 26.3073 55.287 26.1276 55.943 26.1172C56.8891 26.1172 57.5866 26.3522 58.0389 26.8188C58.4912 27.2854 58.7157 28.0215 58.7157 29.0203V34.3288H57.3794V29.3417C57.3794 28.6332 57.2482 28.1183 56.9858 27.8003C56.7234 27.4824 56.2641 27.3199 55.6081 27.3096C54.8761 27.3096 54.3513 27.5446 54.0301 28.0111C53.709 28.4777 53.5468 29.1378 53.5468 29.988V34.3288H52.2105V29.3417H52.2036Z" fill="#272727"/>
<path d="M61.1636 22.8547C61.1636 22.6093 61.243 22.4054 61.4053 22.2499C61.5676 22.0944 61.7851 22.0149 62.0648 22.0149C62.3341 22.0149 62.5482 22.0944 62.7105 22.2499C62.8727 22.4054 62.9522 22.6059 62.9522 22.8547C62.9522 23.1139 62.8727 23.3213 62.7105 23.4768C62.5482 23.6323 62.3341 23.7118 62.0648 23.7118C61.7851 23.7118 61.5641 23.6358 61.4053 23.4768C61.243 23.3213 61.1636 23.1139 61.1636 22.8547ZM61.388 26.2589H62.7243V34.3253H61.388V26.2589Z" fill="#272727"/>
<path d="M66.0598 26.2589V25.0666C66.0598 24.5413 66.1393 24.092 66.2946 23.7187C66.45 23.3489 66.6606 23.0448 66.9231 22.8063C67.1855 22.5713 67.4859 22.402 67.8242 22.2983C68.1626 22.1946 68.5148 22.1462 68.8808 22.1462C69.2572 22.1462 69.5645 22.2015 69.7993 22.3087C70.0341 22.4193 70.2067 22.516 70.3137 22.6024V24.1922C70.1618 23.9676 69.9685 23.7844 69.7268 23.6427C69.4851 23.5044 69.1743 23.4319 68.8014 23.4319C68.6391 23.4319 68.4768 23.4561 68.3111 23.5044C68.1454 23.5528 67.9934 23.6392 67.8588 23.7602C67.7241 23.8846 67.6136 24.047 67.5273 24.2579C67.441 24.4652 67.3995 24.7383 67.3995 25.0666V26.252H69.9788V27.4443H67.3995V34.3149H66.0633V27.4547H64.7271V26.2624H66.0598V26.2589ZM71.284 22.8547C71.284 22.6093 71.3634 22.4054 71.5257 22.2499C71.688 22.0944 71.9055 22.0149 72.1852 22.0149C72.4545 22.0149 72.6686 22.0944 72.8309 22.2499C72.9931 22.4054 73.0726 22.6059 73.0726 22.8547C73.0726 23.1139 72.9931 23.3213 72.8309 23.4768C72.6686 23.6323 72.4545 23.7118 72.1852 23.7118C71.9055 23.7118 71.6845 23.6358 71.5257 23.4768C71.3634 23.3213 71.284 23.1139 71.284 22.8547ZM71.5084 26.2589H72.8447V34.3253H71.5084V26.2589Z" fill="#272727"/>
<path d="M80.7446 34.1801C80.3026 34.384 79.7398 34.4877 79.0527 34.4877C77.7752 34.4877 76.7842 34.1386 76.0867 33.4405C75.3893 32.7424 75.0405 31.6814 75.0405 30.2644C75.0405 29.5663 75.1441 28.9545 75.3478 28.4327C75.5515 27.9108 75.8312 27.4788 76.1869 27.1332C76.5425 26.7876 76.9603 26.5319 77.4437 26.3591C77.9271 26.1863 78.4519 26.0999 79.0216 26.0999C79.5706 26.0999 80.0678 26.1793 80.5202 26.3349C80.9725 26.4904 81.3316 26.6701 81.6009 26.874V28.7783C81.3212 28.3255 80.9587 27.9627 80.5133 27.6827C80.0678 27.4028 79.5706 27.2645 79.0216 27.2645C78.1722 27.2645 77.5231 27.5134 77.0708 28.0145C76.6185 28.5156 76.394 29.2656 76.394 30.2644V30.3128C76.394 31.3565 76.6219 32.1203 77.0777 32.6041C77.5335 33.088 78.193 33.3299 79.0527 33.3299C79.7295 33.3299 80.2854 33.1951 80.7204 32.9255C81.1555 32.656 81.4766 32.3276 81.6803 31.9406V33.5061C81.4939 33.7515 81.1831 33.9762 80.7446 34.1801Z" fill="#272727"/>
<path d="M83.8212 26.874C84.0905 26.6701 84.4565 26.4904 84.9261 26.3349C85.3922 26.1793 85.9377 26.0999 86.5627 26.0999C87.0772 26.0999 87.5399 26.1482 87.9473 26.245C88.3547 26.3418 88.7035 26.5042 88.9866 26.7289C89.2698 26.9535 89.4907 27.2542 89.6392 27.624C89.7911 27.9938 89.8636 28.4534 89.8636 29.0029V34.3252H88.5895V32.9532C88.3755 33.4059 88.0267 33.7688 87.5502 34.0418C87.0703 34.3149 86.5109 34.4531 85.8652 34.4531C85.0607 34.4531 84.415 34.2423 83.9316 33.8241C83.4482 33.4059 83.2065 32.7804 83.2065 31.9544C83.2065 31.512 83.286 31.1457 83.4413 30.8485C83.5967 30.5512 83.8212 30.3162 84.1112 30.14C84.4012 29.9637 84.7569 29.8393 85.1747 29.7702C85.5925 29.701 86.0724 29.6665 86.6076 29.6665H88.5239V29.0202C88.5239 28.6746 88.4756 28.3912 88.3789 28.1666C88.2822 27.9419 88.1476 27.7622 87.9749 27.6274C87.8023 27.4926 87.5951 27.3993 87.3534 27.344C87.1117 27.2922 86.8458 27.2645 86.5558 27.2645C85.9205 27.2645 85.3749 27.4028 84.9192 27.6827C84.4634 27.9627 84.0939 28.329 83.8142 28.7783V26.874H83.8212ZM86.2071 33.2124C86.6145 33.2124 86.9632 33.1536 87.2464 33.0361C87.5295 32.9186 87.7643 32.7769 87.9473 32.6076C88.1303 32.4417 88.2684 32.2654 88.3582 32.0823C88.448 31.8991 88.5067 31.7367 88.5274 31.5984V30.7275H86.6594C85.9274 30.7275 85.3991 30.8035 85.0711 30.9521C84.7431 31.1042 84.5808 31.4083 84.5808 31.8714C84.5808 32.2689 84.7154 32.5938 84.9848 32.8391C85.2506 33.088 85.6581 33.2124 86.2071 33.2124Z" fill="#272727"/>
<path d="M94.3452 23.8086V26.2589H97.2629V27.4513H94.3452V31.64C94.3452 32.2655 94.4454 32.6975 94.6422 32.9325C94.8424 33.171 95.2153 33.2885 95.7609 33.2885C96.1062 33.2885 96.4342 33.2401 96.7519 33.1434C97.0695 33.0466 97.3457 32.9222 97.5805 32.7736V33.9417C97.4942 34.0177 97.3803 34.0834 97.2353 34.1491C97.0902 34.2147 96.9349 34.2666 96.7691 34.315C96.6034 34.3633 96.4238 34.4014 96.2374 34.4359C96.0509 34.467 95.8679 34.4843 95.6987 34.4843C94.7872 34.4843 94.107 34.2942 93.6685 33.9106C93.2265 33.5304 93.009 32.8807 93.009 31.9683V27.4547H91.3481V26.2624H93.009V24.7797L94.3452 23.8086Z" fill="#272727"/>
<path d="M99.2764 22.8547C99.2764 22.6093 99.3558 22.4054 99.5181 22.2499C99.6804 22.0944 99.8979 22.0149 100.178 22.0149C100.447 22.0149 100.661 22.0944 100.823 22.2499C100.986 22.4054 101.065 22.6059 101.065 22.8547C101.065 23.1139 100.986 23.3213 100.823 23.4768C100.661 23.6323 100.447 23.7118 100.178 23.7118C99.8979 23.7118 99.6769 23.6358 99.5181 23.4768C99.3558 23.3213 99.2764 23.1139 99.2764 22.8547ZM99.5008 26.2589H100.837V34.3253H99.5008V26.2589Z" fill="#272727"/>
<path d="M103.029 30.261C103.029 29.5628 103.133 28.9511 103.337 28.4293C103.54 27.9074 103.82 27.4754 104.176 27.1298C104.531 26.7842 104.949 26.5284 105.432 26.3556C105.916 26.1828 106.444 26.0964 107.01 26.0964C108.278 26.1068 109.262 26.4628 109.959 27.1609C110.657 27.859 111.005 28.9131 111.005 30.3232C111.005 31.0213 110.902 31.633 110.698 32.1549C110.494 32.6767 110.215 33.1087 109.859 33.4543C109.503 33.7999 109.086 34.0557 108.602 34.2285C108.119 34.4013 107.59 34.4877 107.024 34.4877C105.747 34.4773 104.759 34.1248 104.065 33.4302C103.378 32.7355 103.029 31.6814 103.029 30.261ZM104.386 30.3093C104.386 31.3531 104.611 32.1169 105.063 32.6007C105.515 33.0845 106.168 33.3265 107.028 33.3265C107.877 33.3265 108.526 33.0776 108.979 32.5765C109.431 32.0754 109.655 31.3254 109.655 30.3266V30.2748C109.655 29.2414 109.427 28.4846 108.972 28.0007C108.516 27.5169 107.863 27.268 107.014 27.2577C106.164 27.2577 105.515 27.5065 105.063 28.0076C104.611 28.5088 104.386 29.2587 104.386 30.2575V30.3093Z" fill="#272727"/>
<path d="M118.664 29.3417C118.664 28.6332 118.522 28.1183 118.236 27.8003C117.953 27.4824 117.469 27.3199 116.792 27.3096H116.744C115.884 27.3096 115.263 27.5446 114.883 28.0111C114.503 28.4777 114.31 29.1378 114.31 29.988V34.3288H112.974V26.2589H114.248V27.9697C114.4 27.4305 114.728 26.9881 115.239 26.6391C115.75 26.29 116.392 26.1138 117.165 26.1138H117.196C118.122 26.1241 118.819 26.3626 119.292 26.8326C119.765 27.2992 120 28.0284 120 29.0168V34.3253H118.664V29.3417Z" fill="#272727"/>
<path d="M28.0269 48.9512H34.57V50.2403H26.5767V38.9495H28.0269V48.9512Z" fill="#272727"/>
<path d="M36.4725 42.789C36.7418 42.5851 37.1078 42.4054 37.5774 42.2499C38.0436 42.0944 38.5891 42.0149 39.2141 42.0149C39.7285 42.0149 40.1912 42.0633 40.5987 42.16C41.0061 42.2568 41.3548 42.4192 41.638 42.6439C41.9211 42.8685 42.1386 43.1692 42.2905 43.539C42.4425 43.9088 42.515 44.3685 42.515 44.918V50.2403H41.2409V48.8682C41.0268 49.321 40.6781 49.6838 40.2016 49.9569C39.7216 50.2299 39.1623 50.3681 38.5166 50.3681C37.7121 50.3681 37.0664 50.1573 36.583 49.7391C36.0996 49.321 35.8579 48.6954 35.8579 47.8694C35.8579 47.427 35.9373 47.0607 36.0927 46.7635C36.2481 46.4663 36.4725 46.2313 36.7626 46.055C37.0526 45.8787 37.4082 45.7543 37.826 45.6852C38.2438 45.6161 38.7238 45.5815 39.259 45.5815H41.1753V44.9352C41.1753 44.5896 41.1269 44.3062 41.0303 44.0816C40.9336 43.857 40.7989 43.6772 40.6263 43.5425C40.4536 43.4077 40.2465 43.3144 40.0048 43.2591C39.7631 43.2072 39.4972 43.1796 39.2072 43.1796C38.5718 43.1796 38.0263 43.3178 37.5705 43.5978C37.1147 43.8777 36.7453 44.244 36.4656 44.6933V42.789H36.4725ZM38.8584 49.1274C39.2659 49.1274 39.6146 49.0687 39.8977 48.9512C40.1809 48.8337 40.4157 48.692 40.5987 48.5226C40.7817 48.3567 40.9198 48.1805 41.0095 47.9973C41.0993 47.8141 41.158 47.6517 41.1787 47.5134V46.6425H39.3107C38.5787 46.6425 38.0505 46.7186 37.7224 46.8672C37.3944 47.0192 37.2321 47.3234 37.2321 47.7865C37.2321 48.1839 37.3668 48.5088 37.6361 48.7542C37.902 49.003 38.3094 49.1274 38.8584 49.1274Z" fill="#272727"/>
<path d="M46.2853 38.1443V43.5426C46.4994 43.1141 46.8447 42.7546 47.3177 42.4574C47.7908 42.1637 48.4123 42.0151 49.1857 42.0151C50.2595 42.0151 51.1158 42.333 51.7477 42.9655C52.383 43.6014 52.6972 44.6209 52.6972 46.031C52.6972 46.8259 52.6144 47.5033 52.4486 48.0562C52.2829 48.6092 52.0412 49.0619 51.7235 49.411C51.4059 49.76 51.0226 50.0158 50.5703 50.1782C50.118 50.3407 49.6035 50.4202 49.0234 50.4202C48.3156 50.4202 47.7183 50.2681 47.2349 49.964C46.7515 49.6598 46.4062 49.3038 46.2025 48.896V50.2439H44.9629V38.1443H46.2853ZM48.8163 49.2244C49.6967 49.2244 50.339 48.9859 50.7429 48.509C51.1469 48.032 51.3472 47.2337 51.3472 46.1105C51.3472 45.5713 51.2885 45.1117 51.1711 44.7384C51.0537 44.3652 50.8845 44.0645 50.6635 43.8398C50.4425 43.6117 50.1767 43.4493 49.8659 43.3525C49.5552 43.2558 49.2099 43.2074 48.8335 43.2074C48.0394 43.2074 47.4282 43.4078 47.0035 43.8053C46.5788 44.2027 46.3406 44.773 46.2853 45.516V46.9365C46.3509 47.6691 46.6099 48.2325 47.0657 48.6299C47.5249 49.0274 48.1084 49.2244 48.8163 49.2244Z" fill="#272727"/>
</g>
<defs>
<clipPath id="clip0">
<rect width="120" height="50.4202" fill="white"/>
</clipPath>
</defs>
</svg>
