<svg width="14" height="13" viewBox="0 0 14 13" fill="none" xmlns="http://www.w3.org/2000/svg">
<path d="M8.0332 3.28849C9.62742 2.33126 10.4866 3.68049 9.66942 5.20558C8.85043 6.73679 8.09883 7.73515 7.70946 7.73515C7.32709 7.73515 7.02435 6.70792 6.57636 4.92471C6.11699 3.07762 6.11699 -0.252555 4.19553 0.125437C2.37907 0.484179 0 3.32787 0 3.32787L0.565238 4.07248C0.565238 4.07248 1.73771 3.14762 2.12795 3.60786C2.52345 4.07248 4.02054 9.65136 4.51578 10.683C4.94802 11.5868 6.14762 12.7794 7.45834 11.9289C8.78131 11.0732 13.1483 7.34403 13.9306 2.9315C14.7111 -1.47315 8.66669 -0.550923 8.0332 3.28849Z" fill="#272727"/>
</svg>
